<svg data-v-423bf9ae="" xmlns="http://www.w3.org/2000/svg" viewBox="0 0 47.8846177412273 60" class="font"><!----><!----><!----><g data-v-423bf9ae="" id="341caec3-4226-4264-bf4b-38fc3a5a1697" fill="#fc54db" transform="matrix(5.244755437131728,0,0,5.244755437131728,-9.545455228583457,-25.541958855454048)"><path d="M10.95 7.63L10.95 7.63L10.95 7.63Q10.95 8.40 10.56 9.10L10.56 9.10L10.56 9.10Q10.18 9.80 9.53 10.32L9.53 10.32L9.53 10.32Q8.88 10.85 8.00 11.16L8.00 11.16L8.00 11.16Q7.13 11.47 6.15 11.47L6.15 11.47L6.15 11.47Q5.80 11.47 5.59 11.38L5.59 11.38L5.59 11.38Q5.39 11.28 5.14 11.02L5.14 11.02L5.14 11.02Q4.44 12.54 4.00 13.82L4.00 13.82L4.00 13.82Q3.56 15.11 3.30 16.31L3.30 16.31L3.30 16.31Q2.77 16.18 2.44 15.87L2.44 15.87L2.44 15.87Q2.10 15.55 1.82 15.08L1.82 15.08L1.82 15.08Q1.96 14.81 2.16 14.38L2.16 14.38L2.16 14.38Q2.35 13.94 2.63 13.31L2.63 13.31L2.63 13.31Q2.91 12.67 3.28 11.78L3.28 11.78L3.28 11.78Q3.65 10.89 4.16 9.70L4.16 9.70L4.16 9.70Q4.38 9.16 4.55 8.75L4.55 8.75L4.55 8.75Q4.72 8.34 4.84 7.99L4.84 7.99L4.84 7.99Q4.97 7.63 5.08 7.28L5.08 7.28L5.08 7.28Q5.18 6.93 5.29 6.51L5.29 6.51L5.29 6.51Q4.63 6.72 4.08 7L4.08 7L4.08 7Q3.53 7.28 3.16 7.59L3.16 7.59L3.16 7.59Q3.04 7.50 2.91 7.34L2.91 7.34L2.91 7.34Q2.77 7.17 2.66 6.96L2.66 6.96L2.66 6.96Q2.55 6.76 2.46 6.55L2.46 6.55L2.46 6.55Q2.38 6.34 2.37 6.17L2.37 6.17L2.37 6.17Q2.77 5.89 3.37 5.66L3.37 5.66L3.37 5.66Q3.98 5.42 4.66 5.24L4.66 5.24L4.66 5.24Q5.35 5.07 6.08 4.97L6.08 4.97L6.08 4.97Q6.82 4.87 7.49 4.87L7.49 4.87L7.49 4.87Q8.29 4.87 8.93 5.07L8.93 5.07L8.93 5.07Q9.58 5.28 10.02 5.64L10.02 5.64L10.02 5.64Q10.47 6.01 10.71 6.51L10.71 6.51L10.71 6.51Q10.95 7.01 10.95 7.63ZM8.46 5.95L8.46 5.95L8.46 5.95Q7.92 5.95 7.36 6.03L7.36 6.03L7.53 6.29L7.53 6.29Q7.39 6.47 7.18 6.83L7.18 6.83L7.18 6.83Q6.97 7.20 6.72 7.71L6.72 7.71L6.72 7.71Q6.47 8.22 6.17 8.85L6.17 8.85L6.17 8.85Q5.87 9.48 5.53 10.18L5.53 10.18L5.53 10.18Q6.62 10.18 7.52 9.97L7.52 9.97L7.52 9.97Q8.41 9.77 9.05 9.41L9.05 9.41L9.05 9.41Q9.69 9.06 10.04 8.58L10.04 8.58L10.04 8.58Q10.40 8.11 10.40 7.56L10.40 7.56L10.40 7.56Q10.40 6.83 9.91 6.39L9.91 6.39L9.91 6.39Q9.42 5.95 8.46 5.95Z"></path></g><!----><!----></svg>